<?xml version="1.0"?>
<svg width="310" height="318" xmlns="http://www.w3.org/2000/svg" xmlns:svg="http://www.w3.org/2000/svg" preserveAspectRatio="xMidYMid meet" version="1.0">
 <g class="layer">
  <title>Layer 1</title>
  <g fill="#000000" id="svg_1" transform="matrix(0.149403 0 0 -0.139396 -42.9644 -37.6929)">
   <path d="m1188.02,-274.51c-59,-4 -190,-37 -215,-54c-5,-4 -23,-10 -40,-14c-52,-13 -210,-94 -266,-138c-241,-187 -353,-450 -312,-733c24,-165 98,-358 192,-495c21,-30 58,-84 82,-119c102,-148 417,-484 625,-668c56,-49 67,-55 87,-46c61,28 376,328 533,508c139,159 262,332 324,455c111,221 148,462 99,653c-62,247 -243,446 -499,550c-52,21 -109,45 -127,53c-17,8 -38,14 -47,14c-9,0 -32,6 -50,14c-35,14 -267,26 -386,20zm344,-367c38,-9 111,-37 162,-62c129,-62 183,-130 220,-276c44,-172 -53,-382 -228,-492c-121,-77 -213,-108 -333,-114c-113,-6 -193,9 -285,55c-45,22 -56,32 -58,56c-5,45 36,145 86,210c47,60 219,236 232,236c4,0 18,9 31,21c22,19 24,19 27,4c2,-10 0,-20 -5,-24c-5,-3 -17,-19 -27,-36c-11,-16 -25,-37 -33,-45c-24,-25 -179,-244 -186,-263c-12,-32 3,-47 47,-47c306,2 478,180 488,503c2,58 0,108 -4,112c-11,11 -212,-15 -327,-42c-120,-28 -177,-54 -242,-112c-77,-67 -108,-149 -133,-348c-18,-149 -40,-165 -106,-81c-67,85 -92,145 -107,265c-7,62 22,181 62,249c66,111 207,210 335,234c29,6 56,13 59,16c11,11 258,-3 325,-19z" fill="#007f00" id="svg_2"/>
  </g>
 </g>
</svg>